<?xml version="1.0" encoding="utf-8"?>
<!-- Generator: Adobe Illustrator 26.3.1, SVG Export Plug-In . SVG Version: 6.00 Build 0)  -->
<svg version="1.1" id="Warstwa_1" xmlns="http://www.w3.org/2000/svg" xmlns:xlink="http://www.w3.org/1999/xlink" x="0px" y="0px"
	 viewBox="0 0 17.2 17.4" style="enable-background:new 0 0 17.2 17.4;" xml:space="preserve">
<g id="Group_5248" transform="translate(0.5 0.5)">
	<path d="M8.1,9.4C8,9.4,8,9.3,7.9,9.3l-8.1-4.4c-0.2-0.1-0.3-0.3-0.3-0.4S-0.4,4.1-0.2,4l8.1-4.4c0.1-0.1,0.3-0.1,0.5,0L16.5,4
		c0.2,0.1,0.3,0.3,0.3,0.4s-0.1,0.4-0.3,0.4L8.4,9.3C8.3,9.3,8.2,9.4,8.1,9.4z M1,4.4l7.1,3.9l7.1-3.9L8.1,0.6L1,4.4z"/>
	<path d="M8.1,16.7c-0.1,0-0.2,0-0.2-0.1l-8.1-4.4c-0.2-0.1-0.3-0.3-0.3-0.4V4.4c0-0.3,0.2-0.5,0.5-0.5s0.5,0.2,0.5,0.5v7.1l7.6,4.2
		l7.6-4.2V4.4c0-0.3,0.2-0.5,0.5-0.5s0.5,0.2,0.5,0.5v7.4c0,0.2-0.1,0.4-0.3,0.4l-8.1,4.4C8.3,16.7,8.2,16.7,8.1,16.7z"/>
	<path d="M8.1,16.9c-0.3,0-0.5-0.2-0.5-0.5V9c0-0.3,0.2-0.5,0.5-0.5S8.6,8.8,8.6,9v7.3C8.6,16.6,8.4,16.9,8.1,16.9z"/>
	<path d="M12.2,7.1c-0.1,0-0.2,0-0.2-0.1L3.8,2.7C3.6,2.5,3.5,2.2,3.6,2c0.1-0.2,0.4-0.3,0.7-0.2l8.1,4.4c0.2,0.1,0.3,0.4,0.2,0.7
		C12.5,7,12.3,7.1,12.2,7.1z"/>
</g>
</svg>
