<?xml version="1.0" encoding="utf-8"?>
<!-- Generator: Adobe Illustrator 26.3.1, SVG Export Plug-In . SVG Version: 6.00 Build 0)  -->
<svg version="1.1" id="Warstwa_1" xmlns="http://www.w3.org/2000/svg" xmlns:xlink="http://www.w3.org/1999/xlink" x="0px" y="0px"
	 viewBox="0 0 25 28.6" style="enable-background:new 0 0 25 28.6;" xml:space="preserve">
<style type="text/css">
	.st0{fill:#1D1D1B;}
</style>
<path class="st0" d="M16.7,13.4L16.7,13.4c3.3-2.3,4.2-6.9,1.9-10.2C16.2-0.2,11.7-1,8.3,1.3C5,3.6,4.2,8.2,6.4,11.5
	c0.5,0.7,1.1,1.4,1.9,1.9C3.4,14.6,0,17.9,0,22v3c0,2,1.6,3.6,3.6,3.6h17.7c2,0,3.6-1.6,3.7-3.6v-3C25,17.9,21.6,14.6,16.7,13.4z
	 M6.9,7.3c0-3.1,2.5-5.6,5.6-5.6s5.6,2.5,5.6,5.6c0,3.1-2.5,5.6-5.6,5.6C9.4,12.9,6.9,10.4,6.9,7.3z M23.2,24.9c0,1-0.8,1.9-1.9,1.9
	H3.6c-1,0-1.9-0.8-1.9-1.9v-3c0-4.1,4.7-7.3,10.7-7.3c6,0,10.7,3.2,10.7,7.3V24.9z"/>
</svg>
