<?xml version="1.0" standalone="no"?>
<!DOCTYPE svg PUBLIC "-//W3C//DTD SVG 20010904//EN"
 "http://www.w3.org/TR/2001/REC-SVG-20010904/DTD/svg10.dtd">
<svg version="1.0" xmlns="http://www.w3.org/2000/svg"
 width="120.000000pt" height="120.000000pt" viewBox="0 0 120.000000 120.000000"
 preserveAspectRatio="xMidYMid meet">

<g transform="translate(0.000000,120.000000) scale(0.100000,-0.100000)"
fill="#000000" stroke="none">
<path d="M267 932 c-23 -26 -22 -94 1 -115 16 -15 55 -17 334 -17 356 0 348
-2 348 77 0 74 5 73 -352 73 -292 0 -316 -1 -331 -18z"/>
<path d="M267 682 c-23 -26 -22 -94 1 -115 16 -15 55 -17 334 -17 356 0 348
-2 348 77 0 74 5 73 -352 73 -292 0 -316 -1 -331 -18z"/>
<path d="M267 432 c-23 -26 -22 -94 1 -115 16 -15 55 -17 334 -17 356 0 348
-2 348 77 0 74 5 73 -352 73 -292 0 -316 -1 -331 -18z"/>
</g>
</svg>
