<?xml version="1.0" encoding="utf-8"?>
<!-- Generator: Adobe Illustrator 26.3.1, SVG Export Plug-In . SVG Version: 6.00 Build 0)  -->
<svg version="1.1" id="Group_4934" xmlns="http://www.w3.org/2000/svg" xmlns:xlink="http://www.w3.org/1999/xlink" x="0px" y="0px"
	 viewBox="0 0 27.3 25" style="enable-background:new 0 0 27.3 25;" xml:space="preserve">
<style type="text/css">
	.st0{fill:#1D1D1B;}
</style>
<g>
	<path class="st0" d="M11.7,18.9c-1.7,0-3.1,1.4-3.1,3.1c0,1.7,1.4,3.1,3.1,3.1c1.7,0,3.1-1.4,3.1-3.1c0,0,0,0,0,0
		C14.7,20.3,13.3,18.9,11.7,18.9z M11.7,23.5c-0.8,0-1.5-0.7-1.5-1.5c0-0.8,0.7-1.5,1.5-1.5c0.8,0,1.5,0.7,1.5,1.5
		C13.1,22.8,12.5,23.5,11.7,23.5z"/>
	<path class="st0" d="M20,18.9c-1.7,0-3.1,1.4-3.1,3.1c0,1.7,1.4,3.1,3.1,3.1c1.7,0,3.1-1.4,3.1-3.1C23.1,20.3,21.7,18.9,20,18.9z
		 M20,23.5c-0.8,0-1.5-0.7-1.5-1.5c0-0.8,0.7-1.5,1.5-1.5c0.8,0,1.5,0.7,1.5,1.5C21.5,22.8,20.8,23.5,20,23.5z"/>
	<path class="st0" d="M6.7,5.6c0,0-0.1,0-0.1,0l-1-3.3L0.1,0C0,0,0,0,0,0v1.7l4.2,1.8l4.6,14.8h14.6l3.9-12.7H6.7z M22.2,16.7H10
		L7.1,7.2h18.1L22.2,16.7z"/>
</g>
</svg>
