<?xml version="1.0" encoding="utf-8"?>
<!-- Generator: Adobe Illustrator 26.3.1, SVG Export Plug-In . SVG Version: 6.00 Build 0)  -->
<svg version="1.1" id="Warstwa_1" xmlns="http://www.w3.org/2000/svg" xmlns:xlink="http://www.w3.org/1999/xlink" x="0px" y="0px"
	 viewBox="0 0 28.2 26.9" style="enable-background:new 0 0 28.2 26.9;" xml:space="preserve">
<style type="text/css">
	.st0{fill:#1D1D1B;}
</style>
<path class="st0" d="M28.2,10.5c0.1-0.5-0.3-0.9-0.8-1l-8.6-1.3l-4-7.8C14.7,0.2,14.4,0,14,0c-0.3,0-0.6,0.2-0.8,0.5L9.4,8.3
	L0.8,9.7c-0.2,0-0.4,0.1-0.5,0.3c-0.3,0.4-0.3,0.9,0,1.3l6.2,6.1l-1.4,8.6c0,0,0,0.1,0,0.1c0,0.5,0.4,0.9,0.9,0.9h0
	c0.1,0,0.3,0,0.4-0.1l7.7-4l7.8,4c0.2,0.1,0.4,0.1,0.5,0.1c0.5-0.1,0.8-0.5,0.7-1l-1.4-8.6l6.2-6.2C28.1,10.9,28.1,10.7,28.2,10.5z
	 M20.2,16.3c-0.2,0.2-0.3,0.5-0.2,0.8l1.2,7.3L14.5,21c-0.3-0.1-0.6-0.1-0.8,0l-6.6,3.4l1.2-7.3c0-0.3,0-0.6-0.3-0.8l-5.3-5.2
	l7.3-1.2c0.3,0,0.5-0.2,0.7-0.5L14,2.9l3.4,6.6c0.1,0.3,0.4,0.4,0.7,0.5l7.3,1.1L20.2,16.3z"/>
</svg>
