<?xml version="1.0" encoding="utf-8"?>
<!-- Generator: Adobe Illustrator 26.3.1, SVG Export Plug-In . SVG Version: 6.00 Build 0)  -->
<svg version="1.1" id="Group_4915" xmlns="http://www.w3.org/2000/svg" xmlns:xlink="http://www.w3.org/1999/xlink" x="0px" y="0px"
	 viewBox="0 0 27.9 28" style="enable-background:new 0 0 27.9 28;" xml:space="preserve">
<style type="text/css">
	.st0{fill:#1D1D1B;}
</style>
<g id="Group_4914">
	<path id="Path_4128" class="st0" d="M23.5,16.7c-0.5-0.6-1.3-1-2.1-1c-0.8,0-1.6,0.4-2.1,1l-2,2c-0.2-0.1-0.3-0.2-0.5-0.3
		c-0.2-0.1-0.4-0.2-0.6-0.3c-2-1.3-3.7-2.9-5.2-4.7c-0.7-0.8-1.2-1.7-1.7-2.7c0.5-0.5,1-1,1.5-1.4c0.2-0.2,0.4-0.4,0.5-0.5
		c1.2-1,1.3-2.9,0.3-4.1c-0.1-0.1-0.2-0.2-0.3-0.3L9.5,2.7C9.3,2.5,9.1,2.3,8.9,2.1C8.6,1.7,8.2,1.3,7.8,0.9C7.2,0.3,6.5,0,5.7,0
		C4.9,0,4.1,0.3,3.5,0.9l0,0L1.4,3.1C0.6,3.9,0.1,4.9,0,6C0,7.6,0.2,9.2,0.8,10.6c1.1,2.9,2.7,5.6,4.8,8c2.7,3.2,6,5.9,9.8,7.7
		c1.7,0.9,3.6,1.4,5.5,1.6c0.1,0,0.3,0,0.4,0c1.4,0,2.7-0.5,3.6-1.6c0,0,0,0,0,0c0.3-0.4,0.7-0.8,1.1-1.1c0.3-0.3,0.5-0.5,0.8-0.8
		c0.6-0.6,0.9-1.3,0.9-2.2c0-0.8-0.4-1.6-1-2.1L23.5,16.7z M25.7,23.3C25.7,23.3,25.7,23.3,25.7,23.3c-0.2,0.3-0.5,0.5-0.8,0.8
		c-0.4,0.4-0.8,0.8-1.2,1.3c-0.6,0.7-1.5,1-2.4,1c-0.1,0-0.2,0-0.3,0c-1.7-0.2-3.4-0.7-4.9-1.5c-3.6-1.7-6.7-4.2-9.3-7.2
		c-1.9-2.2-3.5-4.8-4.5-7.5C1.9,8.8,1.7,7.5,1.7,6.1c0-0.7,0.4-1.4,0.9-1.9l2.1-2.1c0.2-0.3,0.6-0.4,1-0.4c0.4,0,0.7,0.2,0.9,0.4
		l0,0C7,2.5,7.4,2.9,7.7,3.3c0.2,0.2,0.4,0.4,0.6,0.6L10,5.6c0.5,0.4,0.7,1.1,0.3,1.7c-0.1,0.1-0.2,0.2-0.3,0.3
		C9.9,7.7,9.7,7.9,9.5,8.1c-0.5,0.5-1,1-1.6,1.5c0,0,0,0,0,0c-0.4,0.4-0.5,0.9-0.3,1.4l0,0.1c0.5,1.2,1.2,2.3,2,3.3l0,0
		c1.6,2,3.4,3.7,5.6,5.1c0.2,0.2,0.5,0.3,0.8,0.4c0.2,0.1,0.4,0.2,0.6,0.3c0,0,0,0,0.1,0c0.2,0.1,0.4,0.2,0.6,0.2
		c0.4,0,0.7-0.2,1-0.4l2.1-2.1c0.2-0.3,0.6-0.4,0.9-0.5c0.4,0,0.7,0.2,0.9,0.5l3.5,3.5c0.5,0.4,0.6,1.2,0.2,1.7
		C25.9,23.1,25.8,23.2,25.7,23.3"/>
</g>
</svg>
