<?xml version="1.0" encoding="utf-8"?>
<!-- Generator: Adobe Illustrator 26.3.1, SVG Export Plug-In . SVG Version: 6.00 Build 0)  -->
<svg version="1.1" id="x" xmlns="http://www.w3.org/2000/svg" xmlns:xlink="http://www.w3.org/1999/xlink" x="0px" y="0px"
	 viewBox="0 0 6.9 6.9" style="enable-background:new 0 0 6.9 6.9;" xml:space="preserve">
<path d="M6.8,5.9L4.5,3.5l2.4-2.4C7,0.9,7,0.7,6.8,0.6c0,0,0,0,0,0L6.3,0.1C6.2,0,6,0,5.9,0.1L3.5,2.5L1.1,0.1C0.9,0,0.7,0,0.6,0.1
	L0.1,0.6C0,0.7,0,0.9,0.1,1.1l2.4,2.4L0.1,5.9C0,6,0,6.2,0.1,6.3l0.5,0.5C0.7,7,0.9,7,1.1,6.8c0,0,0,0,0,0l2.4-2.4l2.4,2.4
	C6,7,6.2,7,6.3,6.8c0,0,0,0,0,0l0.5-0.5C7,6.2,7,6,6.8,5.9C6.8,5.9,6.8,5.9,6.8,5.9z"/>
</svg>
