<?xml version="1.0" encoding="utf-8"?>
<!-- Generator: Adobe Illustrator 26.3.1, SVG Export Plug-In . SVG Version: 6.00 Build 0)  -->
<svg version="1.1" id="Icon_-_play" xmlns="http://www.w3.org/2000/svg" xmlns:xlink="http://www.w3.org/1999/xlink" x="0px"
	 y="0px" viewBox="0 0 74 74" style="enable-background:new 0 0 74 74;" xml:space="preserve">
<path id="Path_73" d="M56.2,36L29.1,17.5c-0.6-0.4-1.3-0.2-1.7,0.3c-0.1,0.2-0.2,0.4-0.2,0.7v37c0,0.7,0.6,1.2,1.2,1.2
	c0.2,0,0.5-0.1,0.7-0.2L56.2,38c0.6-0.4,0.7-1.1,0.3-1.7C56.4,36.2,56.3,36.1,56.2,36L56.2,36z M29.6,53.2V20.8L53.3,37L29.6,53.2z"
	/>
<path id="Path_74" d="M37,0C16.6,0,0,16.6,0,37s16.6,37,37,37s37-16.6,37-37C74,16.6,57.4,0,37,0z M37,71.5
	C17.9,71.5,2.5,56.1,2.5,37C2.5,17.9,17.9,2.5,37,2.5c19.1,0,34.5,15.5,34.5,34.5c0,0,0,0,0,0C71.5,56.1,56.1,71.5,37,71.5z"/>
</svg>
