<?xml version="1.0" encoding="utf-8"?>
<!-- Generator: Adobe Illustrator 26.3.1, SVG Export Plug-In . SVG Version: 6.00 Build 0)  -->
<svg version="1.1" id="Warstwa_1" xmlns="http://www.w3.org/2000/svg" xmlns:xlink="http://www.w3.org/1999/xlink" x="0px" y="0px"
	 viewBox="0 0 19.1 14" style="enable-background:new 0 0 19.1 14;" xml:space="preserve">
<path d="M17.5,3.2c-1-1-2.4-1.6-3.8-1.6c0,0,0,0,0,0h-1.1V0.5C12.5,0.2,12.3,0,12,0H0.5C0.2,0,0,0.2,0,0.5V12c0,0.3,0.2,0.5,0.5,0.5
	h1.8c0.2,0.8,1,1.5,1.9,1.5c0.7,0,1.4-0.4,1.7-1h7.6c0.3,0.6,1,1,1.7,1c0.9,0,1.7-0.6,1.9-1.5h1.5c0.3,0,0.5-0.2,0.5-0.5V7.1
	C19.1,5.6,18.5,4.3,17.5,3.2z M4.2,13c-0.4,0-0.7-0.2-0.9-0.6c0.1-0.1,0.2-0.2,0.2-0.4c0-0.2-0.1-0.3-0.2-0.4
	C3.4,11.2,3.8,11,4.2,11c0.6,0,1,0.4,1,1S4.7,13,4.2,13z M15.2,13c-0.6,0-1-0.4-1-1s0.4-1,1-1s1,0.4,1,1S15.7,13,15.2,13z
	 M18.1,11.5h-0.9c-0.2-0.9-1-1.5-1.9-1.5c-1.1,0-2,0.9-2,2h-7c0-1.1-0.9-2-2-2c-0.9,0-1.7,0.7-1.9,1.5H1V1h10.5v6.9
	c0,0.3,0.2,0.5,0.5,0.5s0.5-0.2,0.5-0.5V2.6h1.1c0,0,0,0,0,0c1.2,0,2.3,0.5,3.1,1.3c0.8,0.8,1.3,1.9,1.3,3.1V11.5z"/>
</svg>
